<svg width="30" height="29" viewBox="0 0 30 29" fill="none" xmlns="http://www.w3.org/2000/svg">
<path d="M26.2235 0H3.8094C2.99877 0 2.22135 0.327081 1.64815 0.909289C1.07495 1.4915 0.75293 2.28114 0.75293 3.10451L0.75293 25.8709C0.75293 26.6942 1.07495 27.4839 1.64815 28.0661C2.22135 28.6483 2.99877 28.9754 3.8094 28.9754H12.5486V19.1247H8.54126V14.4877H12.5532V10.9536C12.5532 6.93386 14.9078 4.71333 18.5176 4.71333C19.7008 4.7301 20.8813 4.83463 22.0495 5.02608V8.96857H20.0571C19.7178 8.92294 19.3728 8.95536 19.0475 9.06345C18.7222 9.17154 18.425 9.35253 18.1779 9.59303C17.9308 9.83352 17.7401 10.1274 17.6198 10.4528C17.4996 10.7783 17.453 11.1271 17.4834 11.4733V14.4877H21.8629L21.1629 19.1247H17.4843V28.9754H26.2235C27.0341 28.9754 27.8115 28.6483 28.3847 28.0661C28.9579 27.4839 29.28 26.6942 29.28 25.8709V3.10451C29.28 2.28114 28.9579 1.4915 28.3847 0.909289C27.8115 0.327081 27.0341 0 26.2235 0Z" fill="#EDF0F1"/>
</svg>
