<svg width="29" height="29" viewBox="0 0 29 29" fill="none" xmlns="http://www.w3.org/2000/svg">
<path d="M14.2708 7.06187C12.8237 7.06187 11.4091 7.49772 10.2059 8.3143C9.00274 9.13088 8.06496 10.2915 7.51119 11.6495C6.95742 13.0074 6.81253 14.5016 7.09484 15.9432C7.37715 17.3847 8.07398 18.7089 9.09721 19.7482C10.1204 20.7875 11.4241 21.4953 12.8434 21.7821C14.2626 22.0688 15.7337 21.9216 17.0707 21.3592C18.4076 20.7967 19.5503 19.8442 20.3542 18.6221C21.1582 17.4 21.5873 15.9632 21.5873 14.4934C21.5888 13.517 21.4006 12.5499 21.0335 11.6476C20.6663 10.7453 20.1275 9.92538 19.4478 9.23499C18.7681 8.5446 17.9609 7.99726 17.0725 7.62435C16.1841 7.25144 15.232 7.06029 14.2708 7.06187ZM14.2708 19.3244C13.33 19.3244 12.4105 19.0411 11.6283 18.5103C10.8461 17.9794 10.2365 17.2249 9.8765 16.3421C9.5165 15.4594 9.42231 14.488 9.60583 13.5509C9.78936 12.6137 10.2424 11.7529 10.9075 11.0773C11.5727 10.4016 12.4202 9.94153 13.3428 9.75512C14.2655 9.56871 15.2218 9.66438 16.0909 10.03C16.96 10.3957 17.7029 11.0149 18.2255 11.8094C18.7481 12.6038 19.0271 13.5379 19.0271 14.4934C19.0247 15.7739 18.5228 17.0013 17.6313 17.9068C16.7399 18.8122 15.5315 19.322 14.2708 19.3244ZM23.5932 6.75832C23.5932 7.10103 23.4932 7.43606 23.3057 7.72103C23.1183 8.006 22.8519 8.22812 22.5402 8.35932C22.2284 8.49051 21.8854 8.52488 21.5545 8.45809C21.2236 8.39129 20.9195 8.22633 20.6809 7.98406C20.4422 7.74179 20.2797 7.43308 20.2137 7.09697C20.1478 6.76086 20.1815 6.41244 20.3105 6.09576C20.4394 5.77908 20.658 5.50836 20.9385 5.31782C21.2189 5.12729 21.5487 5.02549 21.8861 5.02531C22.1104 5.02471 22.3326 5.06911 22.5399 5.15598C22.7472 5.24284 22.9356 5.37046 23.0942 5.53149C23.2528 5.69252 23.3786 5.8838 23.4642 6.09434C23.5499 6.30488 23.5937 6.53052 23.5932 6.75832ZM28.4374 8.52076C28.4839 6.26816 27.656 4.0874 26.1326 2.44972C24.517 0.907581 22.3722 0.0675284 20.1555 0.108696C17.8009 -0.0274428 10.737 -0.0274428 8.38242 0.108696C6.16638 0.0644187 4.02119 0.902307 2.40533 2.44328C0.884469 4.08262 0.0569939 6.26226 0.100524 8.51432C-0.0335079 10.9059 -0.0335079 18.0808 0.100524 20.4724C0.0539709 22.725 0.881872 24.9058 2.40533 26.5434C4.0216 28.0845 6.16596 28.9244 8.38242 28.8845C10.737 29.0206 17.8009 29.0206 20.1555 28.8845C22.3732 28.9318 24.5202 28.0908 26.1326 26.5434C27.6509 24.9025 28.478 22.724 28.4374 20.4724C28.5714 18.0808 28.5714 10.9133 28.4374 8.51984V8.52076ZM25.3954 23.037C25.1532 23.6617 24.787 24.2291 24.3196 24.7039C23.8522 25.1786 23.2936 25.5506 22.6785 25.7965C20.8003 26.5536 16.3392 26.3788 14.2671 26.3788C12.1951 26.3788 7.72766 26.5471 5.85574 25.7965C5.24068 25.5506 4.68205 25.1786 4.21464 24.7039C3.74723 24.2291 3.38105 23.6617 3.13888 23.037C2.39355 21.1292 2.56562 16.598 2.56562 14.4934C2.56562 12.3887 2.39989 7.8511 3.13888 5.94977C3.38105 5.32504 3.74723 4.75763 4.21464 4.28288C4.68205 3.80812 5.24068 3.43618 5.85574 3.1902C7.73399 2.43317 12.1951 2.60794 14.2671 2.60794C16.3392 2.60794 20.8066 2.4396 22.6785 3.1902C23.2936 3.43618 23.8522 3.80812 24.3196 4.28288C24.787 4.75763 25.1532 5.32504 25.3954 5.94977C26.1407 7.85754 25.9687 12.3887 25.9687 14.4934C25.9687 16.598 26.1398 21.1356 25.3954 23.037Z" fill="#EDF0F1"/>
</svg>
