<svg width="29" height="29" viewBox="0 0 29 29" fill="none" xmlns="http://www.w3.org/2000/svg">
<path d="M26.9625 0H2.50447C1.9626 0.00413365 1.44445 0.22637 1.06366 0.617974C0.682869 1.00958 0.470516 1.53859 0.473169 2.08899V26.8864C0.470516 27.4368 0.682869 27.9658 1.06366 28.3574C1.44445 28.749 1.9626 28.9713 2.50447 28.9754H26.9625C27.5051 28.9715 28.024 28.7495 28.4059 28.3581C28.7877 27.9666 29.0014 27.4375 29.0002 26.8864V2.08899C29.0014 1.53792 28.7877 1.00879 28.4059 0.617313C28.024 0.225841 27.5051 0.00388969 26.9625 0ZM9.09467 24.836H4.86724V11.0079H9.10101V24.836H9.09467ZM6.98095 9.11943C6.49609 9.11943 6.02211 8.97339 5.61897 8.69978C5.21582 8.42617 4.9016 8.03728 4.71605 7.58228C4.5305 7.12729 4.48195 6.62662 4.57655 6.1436C4.67114 5.66058 4.90462 5.2169 5.24747 4.86866C5.59032 4.52042 6.02714 4.28327 6.50269 4.18719C6.97823 4.09111 7.47115 4.14042 7.91911 4.32888C8.36706 4.51735 8.74994 4.83651 9.01931 5.24599C9.28869 5.65548 9.43247 6.1369 9.43247 6.62938C9.43223 7.28971 9.17386 7.92292 8.71417 8.38984C8.25447 8.85676 7.63106 9.11918 6.98095 9.11943ZM24.9439 24.836H20.7156V18.1092C20.7156 16.5049 20.6839 14.4417 18.5185 14.4417C16.3152 14.4417 15.9783 16.1894 15.9783 17.9923V24.836H11.7499V11.0079H15.8062V12.8963H15.8633C16.2702 12.1916 16.8576 11.612 17.5628 11.219C18.2681 10.8261 19.065 10.6346 19.8688 10.6648C24.1479 10.6648 24.9403 13.5301 24.9403 17.2555L24.9439 24.836Z" fill="#EDF0F1"/>
</svg>
