<svg   viewBox="0 0 44 43" fill="none" xmlns="http://www.w3.org/2000/svg">
<path fill-rule="evenodd" clip-rule="evenodd" d="M42.3831 18.792L39.5075 15.2278C39.0459 14.636 38.7608 13.9262 38.6847 13.1798L38.1788 8.6634C38.0763 7.76093 37.6706 6.9198 37.028 6.27732C36.3853 5.63483 35.5436 5.22893 34.6402 5.12584L30.1165 4.62048C29.3177 4.54068 28.6254 4.19757 28.0396 3.7454L24.4771 0.875454C23.7672 0.308722 22.8856 0 21.9769 0C21.0682 0 20.1865 0.308722 19.4767 0.875454L15.9088 3.74806C15.3167 4.21009 14.606 4.49588 13.8586 4.5726L9.3375 5.07797C7.47367 5.29075 6.00924 6.75365 5.79623 8.61287L5.29034 13.1319C5.21046 13.9298 4.86698 14.6214 4.41434 15.2066L1.53872 18.7627C0.971399 19.4718 0.662354 20.3526 0.662354 21.2603C0.662354 22.168 0.971399 23.0488 1.53872 23.7579L4.41434 27.322C4.86698 27.9072 5.15987 28.5987 5.23975 29.3701L5.74564 33.8865C5.95865 35.7483 7.42308 37.2112 9.28425 37.424L13.808 37.9294C14.6068 38.0092 15.2991 38.3523 15.8848 38.8045L19.4501 41.6771C20.9145 42.8447 22.9887 42.8447 24.4504 41.6771L28.0183 38.8045C28.6041 38.3523 29.2964 38.0597 30.0685 37.9799L34.5896 37.4746C36.4535 37.2618 37.9179 35.7989 38.1309 33.9397L38.6368 29.4206C38.7167 28.6227 39.0602 27.9311 39.5128 27.346L42.3884 23.7845C42.9557 23.0754 43.2648 22.1946 43.2648 21.2869C43.2648 20.3792 42.9557 19.4984 42.3884 18.7893L42.3831 18.792ZM17.967 31.9421L8.64788 22.6328L12.6418 18.643L17.967 23.9627L31.28 10.6636L35.2739 14.7863L17.967 31.9421Z" fill="#7DC142"/>
</svg>
