<svg width="33" height="28" viewBox="0 0 33 28" fill="none" xmlns="http://www.w3.org/2000/svg">
<path d="M29.5597 7.62182C29.5806 7.91617 29.5806 8.21053 29.5806 8.50396C29.5806 17.4762 22.8573 27.8135 10.5698 27.8135C6.93185 27.8236 3.36848 26.766 0.308228 24.7679C0.844098 24.8277 1.38296 24.8557 1.92204 24.8516C4.9294 24.8594 7.85169 23.838 10.2175 21.9522C8.82297 21.9268 7.47109 21.4594 6.35077 20.6155C5.23045 19.7717 4.39765 18.5934 3.96874 17.2453C4.38607 17.3124 4.80777 17.3474 5.23027 17.3502C5.82373 17.3486 6.41462 17.271 6.98899 17.1193C5.47598 16.8084 4.11558 15.9751 3.13892 14.7609C2.16226 13.5467 1.62956 12.0266 1.63134 10.4586V10.3749C2.55802 10.9014 3.59421 11.1977 4.6552 11.2396C3.23557 10.2792 2.23059 8.80444 1.84564 7.11664C1.46068 5.42884 1.72481 3.65543 2.58405 2.15881C4.26234 4.25708 6.35609 5.97362 8.72952 7.19713C11.103 8.42065 13.7031 9.1238 16.3612 9.261C16.254 8.74991 16.1984 8.22901 16.1955 7.70645C16.1967 6.34518 16.6006 5.01568 17.3547 3.89036C18.1088 2.76503 19.1784 1.89577 20.4247 1.39531C21.671 0.894844 23.0367 0.786255 24.3445 1.08362C25.6523 1.38099 26.8421 2.0706 27.7594 3.06302C29.2559 2.77027 30.6909 2.21563 32.0004 1.42385C31.5021 2.99228 30.4575 4.32214 29.0626 5.16397C30.3896 5.01063 31.6866 4.65655 32.9105 4.1135C31.9959 5.46635 30.8631 6.65275 29.5597 7.62274V7.62182Z" fill="#EDF0F1"/>
</svg>
