<svg width="29" height="29" viewBox="0 0 29 29" fill="none" xmlns="http://www.w3.org/2000/svg">
<path d="M8.57348 0L6.68889 3.80267L4.80067 0H2.39353L5.79595 6.02228L5.81587 6.01032V10.6445H7.56191V6.01032L7.58183 6.02228L10.9842 0H8.57348ZM13.6703 3.54696C13.9009 3.55005 14.1212 3.64447 14.2843 3.8101C14.4473 3.97573 14.5403 4.19948 14.5433 4.43369V7.97697C14.5433 8.21215 14.4514 8.43769 14.2876 8.60399C14.1239 8.77029 13.9019 8.86371 13.6703 8.86371C13.4388 8.86371 13.2167 8.77029 13.053 8.60399C12.8893 8.43769 12.7973 8.21215 12.7973 7.97697V4.43369C12.8003 4.19948 12.8933 3.97573 13.0564 3.8101C13.2194 3.64447 13.4397 3.55005 13.6703 3.54696ZM13.6703 1.77348C12.9763 1.77542 12.3112 2.05632 11.8205 2.55478C11.3297 3.05325 11.0532 3.72876 11.0513 4.43369V7.97697C11.0513 8.6825 11.3272 9.35914 11.8184 9.85803C12.3095 10.3569 12.9757 10.6372 13.6703 10.6372C14.3649 10.6372 15.0311 10.3569 15.5223 9.85803C16.0134 9.35914 16.2894 8.6825 16.2894 7.97697V4.43369C16.2875 3.72876 16.0109 3.05325 15.5202 2.55478C15.0294 2.05632 14.3643 1.77542 13.6703 1.77348ZM21.5275 1.77348V8.75609C20.7659 9.39998 19.7814 9.79092 19.7814 7.49129V1.77348H18.0381V7.85095C18.0653 9.3172 18.3696 11.9572 21.5275 9.81024V10.6381H23.2735V1.77348H21.5302H21.5275ZM24.1502 19.5083C23.9187 19.5085 23.6968 19.602 23.5331 19.7682C23.3694 19.9345 23.2774 20.1599 23.2771 20.395V21.2817H25.0232V20.395C25.0229 20.1599 24.9309 19.9345 24.7672 19.7682C24.6035 19.602 24.3816 19.5085 24.1502 19.5083ZM16.293 20.395V25.0504C16.8844 25.651 18.039 25.7154 18.039 24.8287V20.6709C18.0381 19.7851 17.1651 19.5083 16.2921 20.395H16.293ZM28.3731 16.1149C28.34 15.1704 27.9512 14.2749 27.2869 13.6131C26.6226 12.9514 25.7335 12.574 24.8031 12.5588C22.9013 12.4668 18.5435 12.4143 14.7163 12.4143C10.8892 12.4143 6.2234 12.4622 4.31978 12.5588C3.38928 12.5737 2.49996 12.951 1.83545 13.6128C1.17095 14.2746 0.781999 15.1703 0.748921 16.1149C0.634813 18.1965 0.577759 18.9508 0.577759 19.9921C0.577759 21.0334 0.634813 22.5944 0.748921 24.676C0.782198 25.62 1.17087 26.5151 1.83477 27.1766C2.49867 27.8381 3.38719 28.2156 4.31707 28.2312C6.21887 28.3232 10.8873 28.3756 14.7136 28.3756C18.5398 28.3756 22.8968 28.3278 24.8004 28.2312C25.7307 28.216 26.6198 27.8386 27.2842 27.1769C27.9485 26.5151 28.3373 25.6196 28.3704 24.6751C28.4657 22.9402 28.5134 21.3789 28.5134 19.9912C28.5134 18.6031 28.4654 17.8488 28.3704 16.114L28.3731 16.1149ZM5.81587 26.6022H4.06983V17.7348H2.3247V15.9613H7.56281V17.7348H5.81587V26.6022ZM12.8 26.6022H11.054V25.7743C7.73488 27.6664 7.59179 25.835 7.56462 24.3688V19.5083H9.31066V24.3945C9.31066 25.4661 10.2951 25.3622 11.0567 24.7165V19.5083H12.8027L12.8 26.6022ZM19.7842 24.8029C19.7842 26.6564 17.915 27.1946 16.2921 25.7559V26.6022H14.5461V15.9613H16.2921V18.8432C18.0381 17.0697 19.7842 17.7348 19.7842 19.5083V24.8029ZM26.7683 21.2817V22.1685H23.2762V23.9419C23.2762 24.1771 23.3682 24.4027 23.5319 24.569C23.6957 24.7353 23.9177 24.8287 24.1493 24.8287C24.3808 24.8287 24.6029 24.7353 24.7666 24.569C24.9303 24.4027 25.0223 24.1771 25.0223 23.9419V23.0552H26.7683V23.9419C26.7683 24.6475 26.4924 25.3241 26.0012 25.823C25.51 26.3219 24.8439 26.6022 24.1493 26.6022C23.4546 26.6022 22.7885 26.3219 22.2973 25.823C21.8061 25.3241 21.5302 24.6475 21.5302 23.9419V20.395C21.5302 19.6895 21.8061 19.0128 22.2973 18.5139C22.7885 18.0151 23.4546 17.7348 24.1493 17.7348C24.8439 17.7348 25.51 18.0151 26.0012 18.5139C26.4924 19.0128 26.7683 19.6895 26.7683 20.395V21.2817Z" fill="#EDF0F1"/>
</svg>
